<svg width="343" height="343" viewBox="0 0 343 343" fill="none" xmlns="http://www.w3.org/2000/svg">
<path d="M114.333 42.875C123.766 42.875 133.198 42.875 142.917 42.875C142.917 47.5912 142.917 52.3075 142.917 57.1667C147.633 57.1667 152.349 57.1667 157.208 57.1667C157.208 52.4504 157.208 47.7342 157.208 42.875C161.925 42.875 166.641 42.875 171.5 42.875C171.5 47.5912 171.5 52.3075 171.5 57.1667C176.216 57.1667 180.933 57.1667 185.792 57.1667C185.792 52.4504 185.792 47.7342 185.792 42.875C209.373 42.875 232.954 42.875 257.25 42.875C257.25 47.5912 257.25 52.3075 257.25 57.1667C262.991 57.1045 262.991 57.1045 268.848 57.0411C273.84 57.0076 278.832 56.975 283.824 56.9434C286.35 56.9134 288.876 56.8835 291.479 56.8526C297.935 56.8218 304.391 56.9802 310.844 57.1667C317.366 63.6892 314.873 73.9786 314.879 82.7353C314.89 87.4447 314.902 92.154 314.913 97.0061C314.907 102.186 314.899 107.367 314.891 112.547C314.894 117.82 314.897 123.093 314.902 128.367C314.907 139.432 314.899 150.497 314.883 161.563C314.862 175.777 314.874 189.991 314.895 204.205C314.908 215.098 314.904 225.991 314.895 236.885C314.892 242.127 314.895 247.37 314.904 252.612C314.913 259.927 314.897 267.242 314.879 274.556C314.876 278.727 314.873 282.897 314.87 287.194C314.417 296.552 314.417 296.552 310.844 300.125C302.167 300.483 293.591 300.612 284.912 300.587C282.199 300.594 279.486 300.6 276.691 300.606C267.68 300.622 258.669 300.612 249.658 300.6C243.423 300.602 237.188 300.605 230.954 300.61C217.87 300.615 204.786 300.607 191.702 300.591C174.893 300.57 158.083 300.582 141.274 300.604C128.394 300.616 115.515 300.612 102.636 300.603C96.4363 300.601 90.2364 300.604 84.0366 300.612C75.3869 300.621 66.7375 300.607 58.0878 300.587C55.5004 300.595 52.9129 300.602 50.247 300.609C32.5645 300.533 32.5645 300.533 28.5834 296.552C28.2282 289.227 28.126 281.89 28.121 274.556C28.1098 269.847 28.0985 265.138 28.0869 260.286C28.0933 255.105 28.1006 249.925 28.1088 244.745C28.1064 239.471 28.103 234.198 28.0985 228.925C28.0932 217.859 28.1009 206.794 28.1176 195.729C28.1379 181.515 28.1262 167.301 28.1048 153.086C28.0919 142.193 28.096 131.3 28.1052 120.407C28.1076 115.165 28.1047 109.922 28.0964 104.68C28.0874 97.3649 28.1035 90.0501 28.121 82.7353C28.1239 78.5649 28.1267 74.3944 28.1297 70.0976C28.5834 60.7396 28.5834 60.7396 32.1563 57.1667C38.2578 56.8553 44.372 56.7844 50.4814 56.8177C56.0256 56.835 56.0256 56.835 61.6817 56.8526C65.5712 56.8826 69.4607 56.9125 73.4681 56.9434C79.3231 56.9675 79.3231 56.9675 85.2964 56.9922C94.9756 57.0345 104.654 57.0934 114.333 57.1667C114.333 52.4504 114.333 47.7342 114.333 42.875Z" fill="#429F46"/>
<path d="M185.792 121.479C209.373 121.479 232.954 121.479 257.25 121.479C257.25 145.06 257.25 168.642 257.25 192.937C233.669 192.937 210.087 192.937 185.792 192.937C185.792 169.356 185.792 145.775 185.792 121.479Z" fill="#37474F"/>
<path d="M171.5 107.188C204.514 107.188 237.527 107.188 271.542 107.188C271.542 140.201 271.542 173.215 271.542 207.229C238.528 207.229 205.514 207.229 171.5 207.229C171.5 174.215 171.5 141.202 171.5 107.188ZM185.792 121.479C185.792 145.06 185.792 168.642 185.792 192.937C209.373 192.937 232.954 192.937 257.25 192.937C257.25 169.356 257.25 145.775 257.25 121.479C233.669 121.479 210.087 121.479 185.792 121.479Z" fill="#CFD8DC"/>
<path d="M185.792 42.875C209.373 42.875 232.954 42.875 257.25 42.875C257.25 57.0238 257.25 71.1725 257.25 85.75C233.669 85.75 210.087 85.75 185.792 85.75C185.792 71.6013 185.792 57.4525 185.792 42.875Z" fill="#F06292"/>
<path d="M142.917 257.25C185.363 257.25 227.809 257.25 271.542 257.25C271.542 261.966 271.542 266.683 271.542 271.542C229.095 271.542 186.649 271.542 142.917 271.542C142.917 266.825 142.917 262.109 142.917 257.25Z" fill="#FFECB3"/>
<path d="M71.4584 228.667C85.6071 228.667 99.7559 228.667 114.333 228.667C114.333 242.815 114.333 256.964 114.333 271.542C100.185 271.542 86.0359 271.542 71.4584 271.542C71.4584 257.393 71.4584 243.244 71.4584 228.667Z" fill="#B0BEC5"/>
<path d="M142.917 228.667C185.363 228.667 227.809 228.667 271.542 228.667C271.542 233.383 271.542 238.099 271.542 242.958C229.095 242.958 186.649 242.958 142.917 242.958C142.917 238.242 142.917 233.526 142.917 228.667Z" fill="#B3E5FC"/>
<path d="M128.625 107.188C133.341 107.188 138.058 107.188 142.917 107.188C142.917 140.201 142.917 173.215 142.917 207.229C138.2 207.229 133.484 207.229 128.625 207.229C128.625 174.215 128.625 141.202 128.625 107.188Z" fill="#FFECB3"/>
<path d="M100.042 107.188C104.758 107.188 109.474 107.188 114.333 107.188C114.333 140.201 114.333 173.215 114.333 207.229C109.617 207.229 104.901 207.229 100.042 207.229C100.042 174.215 100.042 141.202 100.042 107.188Z" fill="#FFECB3"/>
<path d="M71.4584 107.188C76.1746 107.188 80.8909 107.188 85.75 107.188C85.75 140.201 85.75 173.215 85.75 207.229C81.0338 207.229 76.3175 207.229 71.4584 207.229C71.4584 174.215 71.4584 141.202 71.4584 107.188Z" fill="#FFECB3"/>
<path d="M114.333 42.875C123.766 42.875 133.198 42.875 142.917 42.875C142.917 54.6656 142.917 66.4563 142.917 78.6042C133.484 78.6042 124.052 78.6042 114.333 78.6042C114.333 66.8135 114.333 55.0229 114.333 42.875Z" fill="#CFD8DC"/>
<path d="M71.4584 257.25C85.6071 257.25 99.7559 257.25 114.333 257.25C114.333 261.966 114.333 266.683 114.333 271.542C100.185 271.542 86.0359 271.542 71.4584 271.542C71.4584 266.825 71.4584 262.109 71.4584 257.25Z" fill="#CFD8DC"/>
<path d="M71.4584 228.667C85.6071 228.667 99.7559 228.667 114.333 228.667C114.333 233.383 114.333 238.099 114.333 242.958C100.185 242.958 86.0359 242.958 71.4584 242.958C71.4584 238.242 71.4584 233.526 71.4584 228.667Z" fill="#CFD8DC"/>
<path d="M200.083 42.875C214.232 42.875 228.381 42.875 242.958 42.875C242.958 47.5913 242.958 52.3075 242.958 57.1667C228.81 57.1667 214.661 57.1667 200.083 57.1667C200.083 52.4504 200.083 47.7342 200.083 42.875Z" fill="#CFD8DC"/>
<path d="M157.208 42.875C161.925 42.875 166.641 42.875 171.5 42.875C171.5 52.3075 171.5 61.74 171.5 71.4583C166.784 71.4583 162.068 71.4583 157.208 71.4583C157.208 62.0258 157.208 52.5933 157.208 42.875Z" fill="#CFD8DC"/>
</svg>
